<?xml version="1.0" encoding="utf-8"?>
<!-- Generator: Adobe Illustrator 19.2.0, SVG Export Plug-In . SVG Version: 6.00 Build 0)  -->
<svg version="1.1"
	 id="svg2" inkscape:version="0.48.2 r9819" sodipodi:docname="logo.svg" xmlns:cc="http://creativecommons.org/ns#" xmlns:dc="http://purl.org/dc/elements/1.1/" xmlns:inkscape="http://www.inkscape.org/namespaces/inkscape" xmlns:osb="http://www.openswatchbook.org/uri/2009/osb" xmlns:rdf="http://www.w3.org/1999/02/22-rdf-syntax-ns#" xmlns:sodipodi="http://sodipodi.sourceforge.net/DTD/sodipodi-0.dtd" xmlns:svg="http://www.w3.org/2000/svg"
	 xmlns="http://www.w3.org/2000/svg" xmlns:xlink="http://www.w3.org/1999/xlink" x="0px" y="0px" viewBox="0 0 650 650"
	 style="enable-background:new 0 0 650 650;" xml:space="preserve">
<style type="text/css">
	
		.st0{fill:url(#rect3976_1_);stroke:#F2F2FF;stroke-width:5.234;stroke-linecap:round;stroke-linejoin:round;stroke-opacity:0.9412;}
	.st1{fill:none;stroke:#F2F2F2;stroke-width:5.234;stroke-linecap:round;stroke-linejoin:round;}
	.st2{fill:none;stroke:#F2F2FF;stroke-width:3.8928;stroke-linecap:round;stroke-linejoin:round;stroke-opacity:0.9412;}
	.st3{fill:none;stroke:#F2F2FF;stroke-width:5.234;stroke-linecap:round;stroke-linejoin:round;stroke-opacity:0.9412;}
</style>
<defs>
	
	
		<inkscape:perspective  id="perspective4312" inkscape:persp3d-origin="325 : 216.66667 : 1" inkscape:vp_x="0 : 325 : 1" inkscape:vp_y="0 : 1000 : 0" inkscape:vp_z="650 : 325 : 1" sodipodi:type="inkscape:persp3d">
		</inkscape:perspective>
</defs>
<sodipodi:namedview  bordercolor="#666666" borderopacity="1.0" id="base" inkscape:current-layer="layer1" inkscape:cx="169.65465" inkscape:cy="307.6734" inkscape:document-units="px" inkscape:pageopacity="0.0" inkscape:pageshadow="2" inkscape:window-height="856" inkscape:window-maximized="1" inkscape:window-width="1404" inkscape:window-x="36" inkscape:window-y="1072" inkscape:zoom="0.54115914" pagecolor="#ffffff" showgrid="false">
	</sodipodi:namedview>
<g id="layer1" transform="translate(0,-402.36218)" inkscape:groupmode="layer" inkscape:label="Ebene 1">
	
		<linearGradient id="rect3976_1_" gradientUnits="userSpaceOnUse" x1="-53.617" y1="616.5102" x2="591.617" y2="616.5102" gradientTransform="matrix(0 -1 -1 0 941.5102 996.3622)">
		<stop  offset="0" style="stop-color:#013363"/>
		<stop  offset="1" style="stop-color:#013363"/>
	</linearGradient>
	<path id="rect3976" class="st0" d="M5,927.1V527.7c0-66.4,53.9-120.3,120.3-120.3h399.4c66.4,0,120.3,53.9,120.3,120.3v399.4
		c0,66.4-53.9,120.3-120.3,120.3H125.3C58.9,1047.4,5,993.5,5,927.1z"/>
	<path id="path3075" inkscape:connector-curvature="0" sodipodi:nodetypes="sccccccccsccccccccsssccccsccccccccs" class="st1" d="
		M192.2,728.2c0,1.2,0.1,2.3,0.1,3.5l31.3,16.5c2,18.2,6.5,35.7,13.2,52l-19.6,29.5c11.2,21.6,25.9,41.1,43.2,57.8l33.9-10.5
		c13.9,11.2,29.4,20.5,46.1,27.5l7,34.8c21.4,6.8,44.3,10.4,68,10.3c1.2,0,2.3,0,3.5,0l16.5-31.3c18.2-2,35.7-6.5,52-13.2l29.5,19.6
		c21.6-11.2,41.1-25.9,57.8-43.2l-10.5-33.9c5.3-6.6,10.1-13.5,14.5-20.8l-63.9-38.3c-20.6,33.7-57.6,56.3-99.9,56.5
		c-65,0.2-117.9-52.3-118.1-117.3s52.3-117.8,117.3-118.1c22.3-0.1,43.1,6.2,60.9,16.9l38.7-63.5c-8-4.8-16.4-9.2-25.1-12.8l-7-34.8
		c-21.5-6.8-44.3-10.4-68-10.3c-1.2,0-2.3,0-3.5,0l-16.5,31.3c-18.2,2-35.7,6.5-52,13.2L312.2,530c-21.6,11.2-41.1,25.9-57.8,43.3
		l10.5,33.9c-11.2,13.9-20.5,29.4-27.5,46.1l-34.8,7C195.8,681.6,192.1,704.5,192.2,728.2L192.2,728.2z"/>
	
		<path id="path3896" sodipodi:cx="55.420757" sodipodi:cy="446.94302" sodipodi:rx="18.941271" sodipodi:ry="18.239742" sodipodi:type="arc" class="st2" d="
		M121.2,619.5c0,13.8-11.2,25-25,25s-25-11.2-25-25l0,0c0-13.8,11.2-25,25-25S121.2,605.7,121.2,619.5z"/>
	
		<path id="path3898" inkscape:connector-curvature="0" sodipodi:nodetypes="cccccccsssccccccsssccccccsssccccssscccc" class="st3" d="
		M190.4,624.9c-1,0-2,0-3,0.2c-67.1,13.8-46.2,9.7-69.6,22c-14.5,9.1-23.6,4.6-32,14.7c-7.6,15.6-3.8,33.5,6.6,50.2
		c14.2,27,24.8,46.5,25.9,64.3c-3.2,16.1-31.9,41.4-31.9,41.4c-3.3,3.2-5.3,7.7-5.3,12.3c-0.1,4.6,1.7,9.2,4.9,12.5
		c3.2,3.3,7.7,5.3,12.3,5.3c4.6,0.1,9.2-1.7,12.5-4.9l35.7-34.6c3.9-3.8,5.9-9.4,5.2-14.8l-1.7-13.2l13,5.1l33.3,30.1
		c3.4,3.1,8.1,4.8,12.7,4.6s9.1-2.3,12.2-5.7c3.1-3.4,4.7-8.1,4.5-12.7s-2.4-9.1-5.9-12.1L184,757.4c-1.6-1.4-3.4-2.5-5.3-3.3
		l-34.6-13.7l-20.2-41.3l45.2,16.6c4.2,1.8,9.2,1.8,13.4,0c4.2-1.7,7.7-5.2,9.5-9.5c1.8-4.2,1.8-9.2,0-13.4
		c-1.7-4.2-5.2-7.7-9.5-9.5l-38.2-15.9l4.5-2.3l42.9-5.3c4.3-0.5,8.4-2.7,11.3-6s4.4-7.7,4.2-12.1c-0.2-4.4-2-8.6-5.1-11.7
		C199,626.9,194.7,625.1,190.4,624.9z M124,700.2c-13.4-28.8,22.8-34.5,22.8-34.5"/>
</g>
</svg>
