<?xml version="1.0" encoding="UTF-8" standalone="no"?>
<!-- Generator: Adobe Illustrator 19.2.0, SVG Export Plug-In . SVG Version: 6.00 Build 0)  -->

<svg
   xmlns:dc="http://purl.org/dc/elements/1.1/"
   xmlns:cc="http://creativecommons.org/ns#"
   xmlns:rdf="http://www.w3.org/1999/02/22-rdf-syntax-ns#"
   xmlns:svg="http://www.w3.org/2000/svg"
   xmlns="http://www.w3.org/2000/svg"
   xmlns:xlink="http://www.w3.org/1999/xlink"
   xmlns:sodipodi="http://sodipodi.sourceforge.net/DTD/sodipodi-0.dtd"
   xmlns:inkscape="http://www.inkscape.org/namespaces/inkscape"
   version="1.1"
   id="svg2"
   inkscape:version="0.92.3 (2405546, 2018-03-11)"
   sodipodi:docname="curriculumW.svg"
   x="0px"
   y="0px"
   viewBox="0 0 650 650"
   style="enable-background:new 0 0 650 650;"
   xml:space="preserve"><metadata
   id="metadata860"><rdf:RDF><cc:Work
       rdf:about=""><dc:format>image/svg+xml</dc:format><dc:type
         rdf:resource="http://purl.org/dc/dcmitype/StillImage" /><dc:title></dc:title></cc:Work></rdf:RDF></metadata>
<style
   type="text/css"
   id="style843">
	
		.st0{fill:url(#rect3976_1_);stroke:#F2F2FF;stroke-width:5.234;stroke-linecap:round;stroke-linejoin:round;stroke-opacity:0.9412;}
	.st1{fill:none;stroke:#F2F2F2;stroke-width:5.234;stroke-linecap:round;stroke-linejoin:round;}
	.st2{fill:none;stroke:#F2F2FF;stroke-width:3.8928;stroke-linecap:round;stroke-linejoin:round;stroke-opacity:0.9412;}
	.st3{fill:none;stroke:#F2F2FF;stroke-width:5.234;stroke-linecap:round;stroke-linejoin:round;stroke-opacity:0.9412;}
</style>
<defs
   id="defs846"><linearGradient
   inkscape:collect="always"
   id="linearGradient876"><stop
     style="stop-color:#000000;stop-opacity:1;"
     offset="0"
     id="stop872" /><stop
     style="stop-color:#000000;stop-opacity:0;"
     offset="1"
     id="stop874" /></linearGradient>
	
	
		<inkscape:perspective
   id="perspective4312"
   inkscape:persp3d-origin="325 : 216.66667 : 1"
   inkscape:vp_x="0 : 325 : 1"
   inkscape:vp_y="0 : 1000 : 0"
   inkscape:vp_z="650 : 325 : 1"
   sodipodi:type="inkscape:persp3d">
		</inkscape:perspective>
<radialGradient
   inkscape:collect="always"
   xlink:href="#linearGradient876"
   id="radialGradient878" /></defs>
<sodipodi:namedview
   bordercolor="#666666"
   borderopacity="1.0"
   id="base"
   inkscape:current-layer="layer1"
   inkscape:cx="169.65465"
   inkscape:cy="307.6734"
   inkscape:document-units="px"
   inkscape:pageopacity="0.0"
   inkscape:pageshadow="2"
   inkscape:window-height="1018"
   inkscape:window-maximized="1"
   inkscape:window-width="1920"
   inkscape:window-x="-8"
   inkscape:window-y="-8"
   inkscape:zoom="0.54115914"
   pagecolor="#ffffff"
   showgrid="false">
	</sodipodi:namedview>
<g
   id="layer1"
   transform="translate(0,-402.36218)"
   inkscape:groupmode="layer"
   inkscape:label="Ebene 1">
	
		<linearGradient
   id="rect3976_1_"
   gradientUnits="userSpaceOnUse"
   x1="-53.617"
   y1="616.5102"
   x2="591.617"
   y2="616.5102"
   gradientTransform="matrix(0 -1 -1 0 941.5102 996.3622)">
		<stop
   offset="0"
   style="stop-color:#013363"
   id="stop849" />
		<stop
   offset="1"
   style="stop-color:#013363"
   id="stop851" />
	</linearGradient>
	<path
   id="rect3976"
   class="st0"
   d="M5,927.1V527.7c0-66.4,53.9-120.3,120.3-120.3h399.4c66.4,0,120.3,53.9,120.3,120.3v399.4   c0,66.4-53.9,120.3-120.3,120.3H125.3C58.9,1047.4,5,993.5,5,927.1z" />
	<path
   id="path3075"
   inkscape:connector-curvature="0"
   sodipodi:nodetypes="sccccccccsccccccccsssccccsccccccccs"
   class="st1"
   d="   M192.2,728.2c0,1.2,0.1,2.3,0.1,3.5l31.3,16.5c2,18.2,6.5,35.7,13.2,52l-19.6,29.5c11.2,21.6,25.9,41.1,43.2,57.8l33.9-10.5   c13.9,11.2,29.4,20.5,46.1,27.5l7,34.8c21.4,6.8,44.3,10.4,68,10.3c1.2,0,2.3,0,3.5,0l16.5-31.3c18.2-2,35.7-6.5,52-13.2l29.5,19.6   c21.6-11.2,41.1-25.9,57.8-43.2l-10.5-33.9c5.3-6.6,10.1-13.5,14.5-20.8l-63.9-38.3c-20.6,33.7-57.6,56.3-99.9,56.5   c-65,0.2-117.9-52.3-118.1-117.3s52.3-117.8,117.3-118.1c22.3-0.1,43.1,6.2,60.9,16.9l38.7-63.5c-8-4.8-16.4-9.2-25.1-12.8l-7-34.8   c-21.5-6.8-44.3-10.4-68-10.3c-1.2,0-2.3,0-3.5,0l-16.5,31.3c-18.2,2-35.7,6.5-52,13.2L312.2,530c-21.6,11.2-41.1,25.9-57.8,43.3   l10.5,33.9c-11.2,13.9-20.5,29.4-27.5,46.1l-34.8,7C195.8,681.6,192.1,704.5,192.2,728.2L192.2,728.2z" />
	
		<ellipse
   id="path3896"
   class="st2"
   cx="99.770004"
   cy="629.88367"
   rx="18.941271"
   ry="18.239742"
   style="fill:#ffffff;stroke:#f2f2ff;stroke-width:3.89280009;stroke-linecap:round;stroke-linejoin:round;stroke-opacity:0.94120005;fill-opacity:1" />
	
		<path
   id="path3898"
   inkscape:connector-curvature="0"
   sodipodi:nodetypes="cccccccsssccccccsssccccccsssccccssscccc"
   class="st3"
   d="   M190.4,624.9c-1,0-2,0-3,0.2c-67.1,13.8-46.2,9.7-69.6,22c-14.5,9.1-23.6,4.6-32,14.7c-7.6,15.6-3.8,33.5,6.6,50.2   c14.2,27,24.8,46.5,25.9,64.3c-3.2,16.1-31.9,41.4-31.9,41.4c-3.3,3.2-5.3,7.7-5.3,12.3c-0.1,4.6,1.7,9.2,4.9,12.5   c3.2,3.3,7.7,5.3,12.3,5.3c4.6,0.1,9.2-1.7,12.5-4.9l35.7-34.6c3.9-3.8,5.9-9.4,5.2-14.8l-1.7-13.2l13,5.1l33.3,30.1   c3.4,3.1,8.1,4.8,12.7,4.6s9.1-2.3,12.2-5.7c3.1-3.4,4.7-8.1,4.5-12.7s-2.4-9.1-5.9-12.1L184,757.4c-1.6-1.4-3.4-2.5-5.3-3.3   l-34.6-13.7l-20.2-41.3l45.2,16.6c4.2,1.8,9.2,1.8,13.4,0c4.2-1.7,7.7-5.2,9.5-9.5c1.8-4.2,1.8-9.2,0-13.4   c-1.7-4.2-5.2-7.7-9.5-9.5l-38.2-15.9l4.5-2.3l42.9-5.3c4.3-0.5,8.4-2.7,11.3-6s4.4-7.7,4.2-12.1c-0.2-4.4-2-8.6-5.1-11.7   C199,626.9,194.7,625.1,190.4,624.9z M124,700.2c-13.4-28.8,22.8-34.5,22.8-34.5" />
<path
   style="opacity:1;fill:url(#radialGradient878);fill-opacity:1;stroke:#cbd900;stroke-width:1.85079527;stroke-miterlimit:4;stroke-dasharray:none;stroke-opacity:0"
   d=""
   id="path870"
   inkscape:connector-curvature="0"
   transform="translate(0,402.36218)" /><path
   style="opacity:1;fill:#000000;fill-opacity:1;stroke:#cbd900;stroke-width:1.85079527;stroke-miterlimit:4;stroke-dasharray:none;stroke-opacity:0"
   d="m 90.078741,439.01411 c -4.954,-3.46992 -6.863482,-10.93737 -4.15525,-16.25003 1.155089,-2.26589 7.304431,-9.52488 13.665204,-16.13107 28.010965,-29.09171 28.064595,-35.02769 0.802035,-88.77123 -11.915612,-23.48961 -13.641483,-28.17437 -14.26925,-38.73286 -0.91474,-15.3851 2.71239,-20.657 17.08743,-24.83594 5.48701,-1.59511 15.78145,-6.24708 22.87654,-10.3377 10.34774,-5.96592 17.96345,-8.52712 38.49044,-12.94452 28.10114,-6.04736 33.41166,-5.61287 37.36183,3.05682 2.99086,6.5642 2.62311,9.13596 -2.07015,14.47735 -3.75621,4.27494 -6.77693,5.07766 -31.27884,8.312 -28.53858,3.76719 -37.56029,6.87 -45.87037,15.77604 -7.99514,8.56853 -6.38727,18.2134 7.53665,45.20891 l 11.86615,23.00594 18.9598,7.73663 c 19.04093,7.76974 25.92086,12.79613 54.40213,39.74556 8.3816,7.9308 9.15228,14.4919 2.48536,21.15881 -8.30461,8.30462 -13.30818,6.46538 -34.56008,-12.70376 -17.31542,-15.61844 -26.7895,-21.5661 -34.35285,-21.5661 -2.18821,0 -2.43864,2.05821 -1.37036,11.26264 l 1.30717,11.26264 -21.99929,21.99929 c -23.39963,23.39964 -27.765392,25.67871 -36.914299,19.27058 z"
   id="path880"
   inkscape:connector-curvature="0"
   transform="translate(0,402.36218)" /><path
   style="opacity:1;fill:#000000;fill-opacity:1;stroke:#cbd900;stroke-width:1.85079527;stroke-miterlimit:4;stroke-dasharray:none;stroke-opacity:0"
   d="m 376.80259,540.40255 c -8.1307,-1.45329 -17.4367,-3.50588 -20.68,-4.56132 -6.25122,-2.0343 -5.70694,-0.64039 -11.4158,-29.23554 -1.09793,-5.49942 -2.90892,-7.14703 -14.55819,-13.24478 -7.31735,-3.83022 -18.23378,-10.4219 -24.25874,-14.64816 l -10.95447,-7.68412 -17.10309,5.13282 -17.1031,5.13283 -7.34533,-8.22645 c -9.62223,-10.77646 -20.37473,-25.32023 -26.89319,-36.37557 l -5.23881,-8.88504 9.6929,-14.46689 9.69291,-14.46689 -4.5086,-13.21315 c -2.47972,-7.26724 -5.64208,-19.71012 -7.02746,-27.65084 -1.38537,-7.94073 -2.81288,-14.70434 -3.17224,-15.03025 -0.35936,-0.32591 -7.3921,-3.96359 -15.6283,-8.08372 l -14.97492,-7.49114 0.82033,-14.43631 c 0.91517,-16.10521 6.81748,-48.3 9.31228,-50.79479 0.88792,-0.88793 8.90818,-3.0205 17.82281,-4.73906 l 16.2084,-3.12465 6.50593,-12.99873 c 3.57826,-7.14929 10.14493,-18.12878 14.5926,-24.39886 l 8.08667,-11.40015 -4.963,-16.00862 c -3.66418,-11.81916 -4.46353,-16.81502 -3.05443,-19.08997 3.23031,-5.21521 26.80002,-24.27121 39.27577,-31.75426 l 11.82943,-7.09538 13.92598,9.39715 13.92598,9.39716 8.43047,-2.36299 c 25.70444,-7.20471 34.56628,-9.30524 39.25758,-9.30524 6.51224,0 9.33913,-3.05465 18.47641,-19.96502 l 7.29314,-13.49743 13.27909,1.15564 c 15.51547,1.35027 42.03793,5.86967 48.2036,8.21385 3.66571,1.3937 4.76827,4.08958 7.56837,18.50569 l 3.27759,16.87432 11.74566,5.92142 11.74567,5.92143 -17.07599,28.22411 c -12.23006,20.2145 -17.8626,27.96028 -19.84782,27.29443 -1.52451,-0.51132 -10.25576,-3.56345 -19.4028,-6.78251 -14.36309,-5.05471 -19.2768,-5.87904 -36.03376,-6.04506 -21.40503,-0.21206 -33.73516,2.20287 -51.16323,10.02063 -48.59469,21.79828 -77.73644,73.2955 -70.83307,125.17117 8.13298,61.11568 58.50012,105.73629 119.35371,105.73629 37.13405,0 72.32971,-16.29586 93.36428,-43.22838 4.45032,-5.69815 8.67776,-10.36029 9.3943,-10.36029 0.71655,0 13.83654,7.54369 29.15552,16.76377 18.03098,10.85235 27.40811,17.53146 26.59192,18.94082 -0.69344,1.19738 -3.68418,5.6098 -6.64612,9.80538 l -5.38533,7.62831 4.77126,15.10367 c 2.62418,8.30701 4.77124,16.14947 4.77124,17.42767 0,4.58335 -46.00462,39.98657 -51.96045,39.98657 -1.00706,0 -6.56679,-3.19987 -12.35496,-7.11084 -17.65989,-11.93246 -16.68367,-11.73249 -31.95204,-6.54562 -7.52496,2.55633 -19.81796,5.63204 -27.31782,6.83494 l -13.6361,2.18708 -7.56443,15.25241 -7.56441,15.25243 -12.98537,-0.16576 c -7.14195,-0.0913 -19.63774,-1.35494 -27.76843,-2.80821 z"
   id="path882"
   inkscape:connector-curvature="0"
   transform="translate(0,402.36218)" /><path
   style="opacity:1;fill:#000000;fill-opacity:1;stroke:#cbd900;stroke-width:1.85079527;stroke-miterlimit:4;stroke-dasharray:none;stroke-opacity:0"
   d="m 149.50522,302.54661 c -24.86554,-9.42892 -24.93897,-9.4757 -24.93897,-15.886 0,-6.38095 5.51892,-13.69919 12.51699,-16.59789 4.67677,-1.93718 7.44915,-1.25385 25.36305,6.25141 11.06178,4.63448 21.61615,9.78725 23.45414,11.45061 4.53516,4.10427 4.34448,14.38402 -0.35397,19.08246 -5.37328,5.37329 -12.89736,4.47548 -36.04124,-4.30059 z"
   id="path884"
   inkscape:connector-curvature="0"
   transform="translate(0,402.36218)" /><path
   style="opacity:1;fill:#000000;fill-opacity:1;stroke:#cbd900;stroke-width:1.85079527;stroke-miterlimit:4;stroke-dasharray:none;stroke-opacity:0"
   d="M 97.794489,638.33171 C 58.740445,628.89064 24.933068,596.02535 12.472961,555.38777 9.2533228,544.8872 9.0734206,532.66353 9.0734206,324.40211 V 104.50377 L 14.135335,89.57579 C 23.867232,60.875678 44.9063,35.938522 70.682678,22.551441 97.678183,8.5312002 82.15267,9.3376755 325.0618,9.3376755 c 239.54201,0 227.29793,-0.5591836 251.16464,11.4706205 28.62225,14.4268 48.46321,37.366627 59.60326,68.912388 l 5.22048,14.783086 v 219.89834 c 0,208.26142 -0.17998,220.48509 -3.39954,230.98566 -12.60145,41.09856 -46.45291,73.70416 -86.22289,83.04956 -17.53169,4.1197 -436.55829,4.02213 -453.633261,-0.1057 z M 429.3006,535.06748 c 7.51535,-14.43972 8.6645,-15.745 14.78308,-16.79149 9.90086,-1.69338 26.1932,-5.88056 35.07621,-9.01467 l 7.861,-2.77353 13.64112,9.20495 c 7.50262,5.0627 14.91506,9.20492 16.47209,9.20492 7.76001,0 56.58378,-35.8367 59.62651,-43.76594 0.59611,-1.55344 -1.0637,-9.98678 -3.68847,-18.74077 l -4.77232,-15.91635 7.18519,-10.99664 c 3.95187,-6.04815 6.75552,-11.69188 6.23033,-12.54165 -1.03315,-1.67167 -60.73348,-37.52368 -65.55264,-39.3665 -2.02351,-0.77378 -4.56097,1.23843 -8.22017,6.51869 -8.43966,12.17843 -28.8818,29.88962 -42.01793,36.4046 -17.60761,8.73262 -32.70678,12.16032 -53.08825,12.05172 -49.22585,-0.26229 -92.44127,-32.71707 -107.69747,-80.88077 -6.06237,-19.1389 -5.59722,-48.10144 1.09811,-68.37176 21.55589,-65.26119 97.58604,-97.3103 158.10153,-66.64479 5.14534,2.60735 10.14001,4.74064 11.09925,4.74064 2.18158,0 40.88016,-63.26419 40.88016,-66.83061 0,-1.43622 -5.68502,-5.68192 -12.63339,-9.43489 l -12.63336,-6.82357 -2.38634,-13.43005 c -3.84846,-21.65877 -3.13048,-20.84899 -22.58729,-25.47553 -9.56863,-2.27527 -26.3864,-4.51859 -37.88424,-5.05336 l -20.6768,-0.961697 -7.81164,15.750907 -7.81166,15.7509 -8.46924,1.15756 c -4.6581,0.63666 -16.06912,3.31273 -25.35781,5.94682 l -16.88856,4.78926 -14.29312,-9.6449 -14.29311,-9.64489 -7.62392,4.22186 c -15.27619,8.4594 -29.7302,19.17499 -41.97033,31.115 l -12.51351,12.20669 5.30367,16.53242 5.30369,16.53242 -6.08632,8.41403 c -3.34747,4.62771 -9.25994,14.23487 -13.13882,21.34923 -3.87886,7.11435 -7.28253,13.23679 -7.56369,13.60542 -0.62259,0.81625 -22.79943,5.64169 -26.34534,5.73245 -1.76306,0.0451 -1.98524,-0.63918 -0.72888,-2.24494 5.61234,-7.17314 3.2448,-21.10595 -4.65216,-27.37778 -4.37537,-3.47493 -6.55637,-3.84811 -17.0293,-2.91377 -19.16848,1.71013 -50.61022,9.66673 -58.91405,14.9087 -9.02677,5.69836 -10.18699,5.87722 -7.67483,1.18322 4.02015,-7.51171 2.29765,-16.73727 -4.36991,-23.40483 -5.3628,-5.3628 -7.55459,-6.28281 -14.967871,-6.28281 -7.413282,0 -9.605072,0.92001 -14.967871,6.28281 -8.912802,8.91279 -8.912802,19.17506 0,28.08785 3.455545,3.45555 7.8082,6.28281 9.672567,6.28281 2.189687,0 1.11025,1.21103 -3.049011,3.4207 -8.975071,4.76813 -11.982423,11.6161 -11.982423,27.28486 0,12.76267 0.417426,13.96204 14.149063,40.65347 7.781986,15.12657 15.946656,33.4528 18.143716,40.72501 l 3.99465,13.22217 -3.84926,7.54516 c -2.11709,4.14985 -10.48965,14.59487 -18.605684,23.21119 -14.044478,14.91018 -14.756428,16.07707 -14.756428,24.18601 0,6.91837 0.997625,9.51765 5.306877,13.8269 6.018605,6.0186 12.843998,8.29079 19.720355,6.56492 4.58805,-1.15153 42.79867,-35.63451 48.48912,-43.75875 1.5746,-2.24805 2.8629,-7.69879 2.8629,-12.11274 0,-4.99205 0.83477,-8.02539 2.20855,-8.02539 1.2147,0 10.96622,7.81421 21.67004,17.36491 19.31327,17.23264 26.66118,21.20053 34.59626,18.68203 4.04526,-1.28391 4.95048,0.80631 1.73969,4.0171 -2.60779,2.60779 2.00854,11.67097 15.83035,31.07955 12.40342,17.41683 26.44916,32.33799 30.44074,32.33799 1.55924,0 9.33278,-2.16397 17.27453,-4.80881 l 14.43952,-4.80881 10.51323,7.3454 c 5.78225,4.03996 15.69568,9.95044 22.02982,13.1344 7.81648,3.92909 11.8263,7.12159 12.48051,9.93664 0.53016,2.28119 2.12954,9.87094 3.5542,16.86609 1.42467,6.99515 3.6859,13.39556 5.02496,14.22315 7.17314,4.43323 41.61862,10.31294 62.58981,10.68381 l 12.01125,0.21243 z"
   id="path886"
   inkscape:connector-curvature="0"
   transform="translate(0,402.36218)" /><path
   style="opacity:1;fill:#000000;fill-opacity:1;stroke:#cbd900;stroke-width:1.85079527;stroke-miterlimit:4;stroke-dasharray:none;stroke-opacity:0"
   d="m 228.26974,395.07356 c -1.73681,-5.10045 -8.01363,-12.02884 -23.68276,-26.14117 -19.65796,-17.70485 -22.72527,-19.74923 -39.35436,-26.22983 l -18.03473,-7.0284 -7.71315,-15.5523 c -4.24223,-8.55377 -7.46337,-15.76544 -7.15808,-16.02594 0.30529,-0.26051 9.28633,2.79618 19.95787,6.79263 18.72494,7.01243 25.56862,7.89682 33.7239,4.35802 2.82712,-1.22676 3.23656,-0.2745 3.2557,7.57193 l 0.0219,8.97515 15.50789,8.07078 c 15.42509,8.02768 15.51468,8.11605 16.77948,16.55032 0.69937,4.66376 3.30895,15.51007 5.79906,24.10292 4.58237,15.81281 5.30232,27.4921 0.89728,14.55589 z"
   id="path888"
   inkscape:connector-curvature="0"
   transform="translate(0,402.36218)" /><path
   style="opacity:1;fill:#ffffff;fill-opacity:1;stroke:#cbd900;stroke-width:1.85079527;stroke-miterlimit:4;stroke-dasharray:none;stroke-opacity:0"
   d="m 188.89261,281.15212 c -1.7168,-1.62093 -9.48188,-5.44178 -17.25574,-8.49079 -16.18377,-6.34749 -18.41741,-8.2736 -9.76,-8.41622 3.36308,-0.0554 12.94738,-1.1297 21.29844,-2.38734 l 15.18376,-2.28661 -1.17544,4.6972 c -5.04926,20.17736 -4.97112,20.01826 -8.29102,16.88376 z"
   id="path890"
   inkscape:connector-curvature="0"
   transform="translate(0,402.36218)" /><path
   style="opacity:1;fill:#ffffff;fill-opacity:1;stroke:#cbd900;stroke-width:1.85079527;stroke-miterlimit:4;stroke-dasharray:none;stroke-opacity:0"
   d="m 394.3575,542.09242 c -11.90014,-1.27441 -37.6384,-6.3417 -40.79667,-8.03196 -1.71737,-0.9191 -3.70011,-4.81195 -4.4061,-8.65075 -4.78399,-26.0129 -2.69555,-23.06733 -26.54598,-37.4407 -11.8632,-7.14932 -22.9651,-13.9886 -24.6709,-15.19842 -2.48365,-1.76149 -6.50175,-1.18179 -20.17194,2.91031 l -17.0705,5.10998 -7.04762,-7.97475 c -7.57086,-8.56682 -28.60941,-38.22194 -30.36868,-42.80651 -0.62119,-1.61878 2.88843,-8.64566 8.39075,-16.79975 l 9.45859,-14.01702 -4.49026,-14.29679 c -2.46964,-7.86326 -5.47005,-19.28611 -6.66757,-25.38413 -1.19753,-6.09802 -2.54209,-12.38569 -2.98792,-13.97262 -0.44583,-1.58692 -7.57206,-6.48796 -15.83606,-10.89121 l -15.02547,-8.00591 1.07706,-15.90312 c 1.1754,-17.35536 6.22307,-44.22079 8.93998,-47.58168 0.9392,-1.16181 7.29252,-3.15014 14.11848,-4.4185 18.84539,-3.50176 20.06591,-4.27746 26.36536,-16.7566 3.1691,-6.27796 9.52724,-17.07686 14.12919,-23.99755 l 8.36718,-12.58308 -3.90433,-12.85416 c -5.59858,-18.4321 -5.22064,-21.53255 3.58879,-29.44094 10.83472,-9.72653 27.3777,-21.89173 36.06022,-26.5176 l 7.51958,-4.00627 13.97556,9.43061 c 7.68655,5.18683 14.28132,9.12576 14.65504,8.75316 0.6135,-0.61166 37.75226,-10.15412 50.0377,-12.85672 3.94681,-0.86823 6.86357,-4.43249 13.75474,-16.80818 l 8.74574,-15.70628 9.34384,1.10264 c 15.17522,1.79078 42.17413,6.16589 48.14944,7.8025 6.00204,1.64393 8.00162,6.05 11.97699,26.3914 1.99884,10.2277 2.1125,10.36359 13.03659,15.58482 6.0611,2.89694 11.02018,5.76497 11.02018,6.3734 0,2.07854 -27.88276,47.17447 -31.30689,50.63391 -3.33325,3.36763 -3.85401,3.30201 -21.6261,-2.7251 -16.5057,-5.59762 -20.2001,-6.17386 -39.46127,-6.15496 -23.24699,0.0228 -35.40035,2.7155 -53.50435,11.85437 -34.51116,17.42117 -58.83434,49.51204 -65.93648,86.99351 -10.89179,57.4813 22.47234,114.92727 78.82618,135.72198 18.4315,6.80127 46.59183,8.38384 67.28041,3.78107 23.83435,-5.30263 42.02507,-15.64861 60.21095,-34.24499 l 15.73314,-16.08824 23.2604,14.03528 c 12.79323,7.71941 25.21514,15.47879 27.60425,17.24308 l 4.34384,3.2078 -5.9177,8.39551 c -3.25474,4.61752 -5.90524,9.41063 -5.88997,10.65134 0.0148,1.24071 2.12507,8.90821 4.68847,17.03891 l 4.66076,14.78308 -10.6941,9.71698 c -5.88177,5.34432 -17.53,14.4174 -25.88496,20.16238 l -15.19084,10.44541 -9.76588,-6.48417 c -20.01985,-13.29243 -18.91531,-13.09169 -39.51971,-7.18231 -10.04886,2.88204 -22.47893,5.81114 -27.62237,6.50914 l -9.35174,1.26908 -7.72775,15.5817 -7.72773,15.58172 -7.86698,-0.29574 c -4.32684,-0.16261 -10.7774,-0.6074 -14.33458,-0.98836 z"
   id="path902"
   inkscape:connector-curvature="0"
   transform="translate(0,402.36218)" /><path
   style="opacity:1;fill:#ffffff;fill-opacity:1;stroke:#cbd900;stroke-width:1.85079527;stroke-miterlimit:4;stroke-dasharray:none;stroke-opacity:0"
   d="M 155.05636,639.63643 C 96.887911,638.38297 95.737711,638.28374 84.493915,633.54859 47.965649,618.16533 16.706318,580.97374 11.806601,547.06698 10.805514,540.13932 10.055958,443.79224 10.034518,319.28573 L 9.9973632,103.51042 14.658341,90.169671 C 21.278502,71.221315 29.312201,58.541126 44.307951,43.371472 54.596089,32.964021 61.127162,28.293892 75.08081,21.366943 L 92.793764,12.573776 134.08843,11.04532 c 53.51452,-1.9807544 328.43222,-1.9807544 381.94675,0 l 41.29466,1.528456 17.71296,8.793167 c 29.53042,14.659665 49.8785,38.597557 61.48487,72.332011 3.48666,10.134176 3.5974,17.159646 3.56141,225.910756 -0.0214,124.30457 -0.77111,220.53044 -1.77209,227.45727 -5.74991,39.7903 -47.86401,83.17859 -87.81319,90.47005 -13.41247,2.44802 -306.95067,4.0064 -395.44744,2.0994 z m 274.73049,-103.92274 7.99595,-15.05439 20.32674,-5.25189 c 11.17971,-2.88854 22.47095,-5.7523 25.09166,-6.36394 3.65863,-0.85385 7.8096,0.85755 17.87849,7.37107 7.21246,4.66573 14.78443,8.48312 16.82662,8.48312 5.17236,0 35.44976,-20.60578 49.02189,-33.36264 l 11.27531,-10.59803 -4.40874,-17.56079 -4.40874,-17.56078 6.78427,-10.81375 6.78427,-10.81375 -4.20344,-3.43347 c -5.46266,-4.46199 -61.91676,-38.14395 -63.93286,-38.14395 -0.84843,0 -5.09319,4.36563 -9.43278,9.7014 -29.88321,36.74303 -71.57143,52.26869 -115.40914,42.98101 -40.04551,-8.48425 -74.78665,-41.98757 -85.28736,-82.24858 -4.62533,-17.73408 -3.00142,-50.12878 3.34619,-66.75188 10.81944,-28.33393 29.30927,-48.8161 56.34099,-62.41186 16.52046,-8.30909 31.89851,-11.84577 51.23201,-11.78247 18.51385,0.0606 27.46247,2.00683 45.58291,9.91372 6.77655,2.95697 13.13863,5.3763 14.13797,5.3763 1.78263,0 25.91105,-37.61089 36.52375,-56.93247 l 5.38906,-9.81139 -4.92578,-4.04775 c -2.70918,-2.22626 -8.60534,-6.21998 -13.1026,-8.87493 -8.04698,-4.75054 -8.21239,-5.0478 -10.41849,-18.72333 -1.23292,-7.64288 -3.23647,-15.23151 -4.45231,-16.86362 -3.22084,-4.3235 -28.53214,-10.19846 -49.07626,-11.39099 -9.7957,-0.56862 -20.09903,-1.390007 -22.89628,-1.825317 -4.76431,-0.741427 -5.60462,0.241325 -13.28894,15.541727 l -8.20302,16.33319 -8.88569,1.22305 c -4.88712,0.67268 -15.95384,3.24327 -24.59271,5.71242 l -15.70702,4.48938 -14.51135,-9.51365 -14.51137,-9.51364 -8.55911,4.51561 c -12.1111,6.38956 -34.73792,23.65981 -45.32362,34.5939 l -8.99005,9.28592 4.83231,14.51007 c 2.65776,7.98054 4.83229,15.55665 4.83229,16.83578 0,1.27914 -3.63015,7.9287 -8.06701,14.7768 -4.43687,6.84807 -10.24193,16.3142 -12.90015,21.0358 -4.38754,7.79326 -5.73081,8.78221 -14.56959,10.72655 -17.0696,3.75494 -16.57836,3.73236 -15.41818,0.70896 2.85424,-7.43803 2.95691,-11.71099 0.4269,-17.76618 -4.31805,-10.33452 -10.16136,-13.13275 -24.8521,-11.90114 -19.94201,1.67186 -50.97441,10.22472 -63.21126,17.4217 -0.50817,0.29888 -0.63562,-3.61762 -0.28322,-8.70334 0.58831,-8.49034 0.11217,-9.77529 -5.82084,-15.7083 -5.55042,-5.55041 -7.68623,-6.46155 -15.146621,-6.46155 -7.413282,0 -9.605072,0.92001 -14.967871,6.28281 -5.063002,5.063 -6.28281,7.72623 -6.28281,13.71735 0,8.07474 6.318323,17.62925 13.076514,19.77422 3.33304,1.05788 3.110691,1.5459 -2.391018,5.24801 -7.618029,5.12618 -11.216323,15.30384 -10.27499,29.06249 0.565693,8.26825 3.60078,16.33676 15.190066,40.38152 7.96572,16.52677 15.93818,34.74459 17.71658,40.48401 3.09115,9.97605 3.08791,10.71997 -0.0737,16.90292 -1.81892,3.55718 -10.0428,14.22944 -18.275302,23.71613 -13.945064,16.06956 -14.96817,17.81598 -14.96817,25.55056 0,6.67833 1.037918,9.33997 5.306877,13.60892 5.957878,5.95787 12.836511,8.29266 19.502415,6.61964 4.0023,-1.00453 37.0598,-29.41983 46.22013,-39.72957 1.96989,-2.21706 4.48998,-8.58016 5.60021,-14.14026 l 2.01861,-10.10923 20.10905,16.74068 c 23.02871,19.17131 24.72576,20.24449 32.01309,20.24449 4.67436,0 5.35717,0.68022 5.35717,5.33688 0,10.90476 38.5863,61.18699 46.95456,61.18699 1.87744,0 9.82257,-2.03526 17.65586,-4.52279 l 14.24238,-4.52279 5.58434,4.06082 c 3.07141,2.23344 12.70133,8.27638 21.39984,13.42871 17.4506,10.33642 15.37555,6.98962 22.59822,36.44839 1.23884,5.05282 3.11204,7.56378 6.70749,8.99118 9.09771,3.6118 41.71871,8.63992 57.04893,8.79338 l 15.10262,0.15116 7.99594,-15.05437 z"
   id="path904"
   inkscape:connector-curvature="0"
   transform="translate(0,402.36218)" /><path
   style="opacity:1;fill:#ffffff;fill-opacity:1;stroke:#cbd900;stroke-width:1.85079527;stroke-miterlimit:4;stroke-dasharray:none;stroke-opacity:0"
   d="m 90.629576,437.91294 c -8.615957,-6.77731 -6.796848,-12.43623 10.193144,-31.70909 25.92144,-29.40436 26.03969,-33.45881 2.44118,-83.70708 -14.117417,-30.06019 -16.039754,-35.38912 -16.262571,-45.08164 -0.293994,-12.78871 3.280417,-18.09211 14.887991,-22.0895 3.83345,-1.32016 14.45384,-5.98919 23.60087,-10.37562 18.69963,-8.96737 44.46043,-15.8858 60.82967,-16.33668 10.51834,-0.28973 11.07352,-0.0702 14.51121,5.73861 3.36064,5.6786 3.39143,6.31917 0.51478,10.70949 -4.25044,6.48699 -7.78942,7.66186 -35.65365,11.83629 -26.64951,3.99244 -35.96699,7.59934 -43.85879,16.97821 -7.0162,8.33828 -5.70438,15.23849 8.39467,44.1564 l 11.4802,23.5465 14.56995,5.70309 c 8.01348,3.1367 18.9165,8.49551 24.22895,11.90845 12.5873,8.08662 38.17725,32.0929 40.37672,37.87795 2.06969,5.4437 -1.77352,12.36015 -8.59514,15.46829 -5.30077,2.41519 -11.97769,-1.42557 -29.65788,-17.0601 -14.31043,-12.65467 -26.27863,-20.25755 -31.88872,-20.25755 -4.42522,0 -4.49246,0.22862 -3.39661,11.54928 l 1.11798,11.54928 -18.87821,18.26456 c -18.30379,17.70882 -27.7647,25.13955 -32.026175,25.15384 -1.133359,0.004 -4.251665,-1.71654 -6.929569,-3.82298 z"
   id="path906"
   inkscape:connector-curvature="0"
   transform="translate(0,402.36218)" /><path
   style="opacity:1;fill:#ffffff;fill-opacity:1;stroke:#cbd900;stroke-width:1.85079527;stroke-miterlimit:4;stroke-dasharray:none;stroke-opacity:0"
   d="m 225.276,389.40942 c -2.03268,-3.14193 -12.29846,-13.39648 -22.81286,-22.78789 -16.9245,-15.11688 -21.12979,-17.8719 -36.66577,-24.02092 l -17.54867,-6.94563 -7.33828,-14.5951 c -4.03605,-8.02731 -7.02718,-14.9062 -6.64696,-15.28642 0.38022,-0.38022 8.95614,2.27178 19.05759,5.89334 15.13838,5.42739 19.90892,6.38323 27.14373,5.4386 l 8.77745,-1.14606 v 8.28558 8.28558 l 14.71221,7.65414 c 8.09172,4.20977 15.10841,9.03327 15.59265,10.71888 2.43034,8.4599 10.3461,43.40519 9.91773,43.7833 -0.27118,0.23936 -2.15615,-2.13546 -4.18882,-5.2774 z"
   id="path932"
   inkscape:connector-curvature="0"
   transform="translate(0,402.36218)" /><path
   style="opacity:1;fill:#111111;fill-opacity:1;stroke:#cbd900;stroke-width:1.85079527;stroke-miterlimit:4;stroke-dasharray:none;stroke-opacity:0"
   d="m 150.7504,302.25064 c -23.04281,-8.3664 -26.83365,-10.94755 -25.3571,-17.26539 1.43589,-6.14391 10.89431,-15.09575 15.94998,-15.09575 4.40734,0 37.88942,13.68567 43.18685,17.65245 4.22737,3.16551 4.89851,13.70358 1.15965,18.20863 -3.83904,4.62575 -15.88214,3.41937 -34.93938,-3.49994 z"
   id="path934"
   inkscape:connector-curvature="0"
   transform="translate(0,402.36218)" /><path
   style="opacity:1;fill:#111111;fill-opacity:1;stroke:#cbd900;stroke-width:1.85079527;stroke-miterlimit:4;stroke-dasharray:none;stroke-opacity:0"
   d="m 93.696976,243.82107 c -12.123758,-3.50563 -15.861175,-19.09142 -6.76039,-28.1922 6.711693,-6.7117 19.163914,-6.87447 25.702404,-0.33598 4.9448,4.9448 6.11746,14.92636 2.5391,21.61259 -1.59162,2.97396 -12.77836,9.51689 -15.03697,8.79485 -0.286727,-0.0917 -3.186591,-0.93733 -6.444144,-1.87926 z"
   id="path936"
   inkscape:connector-curvature="0"
   transform="translate(0,402.36218)" /><path
   style="opacity:1;fill:#ffffff;fill-opacity:1;stroke:#cbd900;stroke-width:1.85079527;stroke-miterlimit:4;stroke-dasharray:none;stroke-opacity:0"
   d="m 91.684185,242.08326 c -5.543665,-2.22484 -10.149785,-13.0676 -7.971348,-18.76448 3.814653,-9.97577 14.882232,-14.61979 23.823083,-9.9963 10.7557,5.56199 11.62919,21.01808 1.53564,27.17292 -6.25326,3.81311 -10.806587,4.22894 -17.387375,1.58786 z"
   id="path938"
   inkscape:connector-curvature="0"
   transform="translate(0,402.36218)" /><path
   style="opacity:1;fill:#ffffff;fill-opacity:1;stroke:#cbd900;stroke-width:1.85079527;stroke-miterlimit:4;stroke-dasharray:none;stroke-opacity:0"
   d="m 174.26935,309.73721 c -0.46553,-0.46553 -3.62969,-1.33676 -7.03148,-1.93607 -8.74313,-1.54032 -35.57465,-11.97823 -39.43782,-15.34197 -1.77859,-1.54865 -3.2338,-3.86679 -3.2338,-5.15141 0,-3.85966 6.29853,-13.69827 8.77745,-13.71081 1.27043,-0.006 2.30986,-0.95272 2.30986,-2.10288 0,-3.72876 13.57771,-0.49783 32.16516,7.654 17.55187,7.69765 21.42351,10.97472 21.42351,18.13351 0,6.24267 -11.56509,15.86342 -14.97288,12.45563 z"
   id="path940"
   inkscape:connector-curvature="0"
   transform="translate(0,402.36218)" /></g>
</svg>