<?xml version="1.0" encoding="UTF-8"?><svg xmlns="http://www.w3.org/2000/svg" xmlns:xlink="http://www.w3.org/1999/xlink" viewBox="0 0 50 50" version="1.1"><path d="M31 10l-14 1-12 7h3v9.215c-.582.48-1 1.762-1 3.285 0 1.934.672 3.5 1.5 3.5s1.5-1.066 1.5-3c0-1.523-.418-3.11-1-3.723V18h11zm-5.5 5l-5 4h-8c-.098.484-.125.469-.125.98 0 .52.055 1.028.156 1.52.278-.012 5.969-.5 8.989 2 .585-1.773 2.21-4.05 4.515-6.121.211-.192.25-.2.465-.379 0-1-.46-1.422-1-2zm8.5 1a8.942 8.942 0 0 0-6 2.32 8.484 8.484 0 0 0-.969-.742c-.12.106-.25.207-.37.317-1.626 1.46-2.903 3.023-3.724 4.437C24.148 22.882 25 24.09 25 25.5V37h6V25.5a3.51 3.51 0 0 1 3.5-3.5 3.51 3.51 0 0 1 3.5 3.5V37h6V25c0-4.95-4.05-9-9-9zm-21.469 6.016A8.818 8.818 0 0 0 12 25v12h6V25.5c0-.867.332-1.648.86-2.254-1.54-.71-3.794-1.172-6.329-1.23z" fill-rule="evenodd" id="surface1"/><metadata><rdf:RDF xmlns:rdf="http://www.w3.org/1999/02/22-rdf-syntax-ns#" xmlns:rdfs="http://www.w3.org/2000/01/rdf-schema#" xmlns:dc="http://purl.org/dc/elements/1.1/"><rdf:Description about="https://iconscout.com/legal#licenses" dc:title="moodle,filled" dc:description="moodle,filled" dc:publisher="Iconscout" dc:date="2017-12-09" dc:format="image/svg+xml" dc:language="en"><dc:creator><rdf:Bag><rdf:li>Icons8</rdf:li></rdf:Bag></dc:creator></rdf:Description></rdf:RDF></metadata></svg>