<?xml version="1.0" encoding="UTF-8" standalone="no"?>
<svg
   xmlns:dc="http://purl.org/dc/elements/1.1/"
   xmlns:cc="http://creativecommons.org/ns#"
   xmlns:rdf="http://www.w3.org/1999/02/22-rdf-syntax-ns#"
   xmlns:svg="http://www.w3.org/2000/svg"
   xmlns="http://www.w3.org/2000/svg"
   id="svg893"
   version="1.1"
   viewBox="0 0 50 50">
  <defs
     id="defs897" />
  <path
     d="m -41.175781,-52.076172 -33.773438,2.41211 -28.949221,16.886718 h 7.238284 v 22.230469 c -1.404034,1.157966 -2.414063,4.2516512 -2.414063,7.9257812 0,4.6656381 1.62165,8.4433594 3.619141,8.4433594 1.997492,0 3.61914,-2.5726432 3.61914,-7.2382812 0,-3.67413 -1.008075,-7.5016498 -2.412109,-8.9804684 v -22.38086 h 26.537109 z m -13.267578,12.0625 -12.0625,9.648438 h -19.298829 c -0.236418,1.167616 -0.302734,1.132483 -0.302734,2.365234 0,1.254463 0.133298,2.4791 0.376953,3.666016 0.670655,-0.02895 14.40001,-1.204902 21.685547,4.826172 1.41127,-4.277237 5.331928,-9.771438 10.892578,-14.767579 0.509022,-0.463186 0.602421,-0.482237 1.121094,-0.914062 0,-2.412429 -1.109397,-3.429835 -2.412109,-4.824219 z m 20.505859,2.41211 a 21.571944,21.571944 0 0 0 -14.474609,5.597656 20.467051,20.467051 0 0 0 -2.337891,-1.791016 c -0.289492,0.255717 -0.603087,0.500258 -0.892578,0.765625 -3.922611,3.522147 -7.003771,7.29195 -8.984375,10.703125 2.921452,1.326836 4.976562,4.241053 4.976562,7.642578 v 27.742188 h 14.47461 v -27.742188 a 8.4676271,8.4676271 0 0 1 8.443359,-8.443359 8.4676271,8.4676271 0 0 1 8.44336,8.443359 v 27.742188 h 14.4746089 v -28.949219 c 0,-11.941526 -9.7694129,-21.710937 -21.7109379,-21.710937 z m -51.792969,14.513671 a 21.272802,21.272802 0 0 0 -1.28125,7.197266 v 28.949219 h 14.47461 v -27.742188 c 0,-2.091576 0.800456,-3.975567 2.074218,-5.4375 -3.715141,-1.712824 -9.15207,-2.826876 -15.267578,-2.966797 z"
     style="fill-rule:evenodd;stroke-width:2.41242933"
     id="surface1" />
  <metadata
     id="metadata891">
    <rdf:RDF>
      <rdf:Description
         dc:language="en"
         dc:format="image/svg+xml"
         dc:date="2017-12-09"
         dc:publisher="Iconscout"
         dc:description="moodle,filled"
         dc:title="moodle,filled"
         about="https://iconscout.com/legal#licenses">
        <dc:creator>
          <rdf:Bag>
            <rdf:li>Icons8</rdf:li>
          </rdf:Bag>
        </dc:creator>
      </rdf:Description>
      <cc:Work
         rdf:about="">
        <dc:format>image/svg+xml</dc:format>
        <dc:type
           rdf:resource="http://purl.org/dc/dcmitype/StillImage" />
        <dc:title></dc:title>
      </cc:Work>
    </rdf:RDF>
  </metadata>
</svg>
