<?xml version="1.0" encoding="UTF-8" standalone="no"?>
<svg
   xmlns:dc="http://purl.org/dc/elements/1.1/"
   xmlns:cc="http://creativecommons.org/ns#"
   xmlns:rdf="http://www.w3.org/1999/02/22-rdf-syntax-ns#"
   xmlns:svg="http://www.w3.org/2000/svg"
   xmlns="http://www.w3.org/2000/svg"
   xml:space="preserve"
   style="enable-background:new 0 0 841.9 595.3;"
   viewBox="0 0 841.9 595.3"
   y="0px"
   x="0px"
   id="Ebene_1"
   version="1.1"><metadata
   id="metadata851"><rdf:RDF><cc:Work
       rdf:about=""><dc:format>image/svg+xml</dc:format><dc:type
         rdf:resource="http://purl.org/dc/dcmitype/StillImage" /><dc:title></dc:title></cc:Work></rdf:RDF></metadata><defs
   id="defs849" />
<style
   id="style834"
   type="text/css">
	.st0{fill:#2F3A48;}
</style>

<path
   d="m 424.20508,44.447266 c -139.86983,0 -253.1582,113.288374 -253.1582,253.158204 0,133.60514 103.36871,242.94706 234.5332,252.47461 0.30779,0.0226 0.61769,0.0371 0.92578,0.0586 1.72208,0.11882 3.44632,0.23022 5.17773,0.31445 0.86805,0.0428 1.7411,0.0657 2.61133,0.0996 1.18106,0.0454 2.35975,0.0997 3.54492,0.12891 2.11589,0.0529 4.23734,0.082 6.36524,0.082 2.1279,0 4.24934,-0.0292 6.36523,-0.082 1.17442,-0.029 2.34134,-0.084 3.51172,-0.12891 0.88262,-0.0343 1.76808,-0.0562 2.64844,-0.0996 1.71384,-0.0834 3.4203,-0.19519 5.125,-0.3125 0.32628,-0.0227 0.65452,-0.0366 0.98047,-0.0605 131.1608,-9.5313 234.52734,-118.87211 234.52734,-252.47461 0,-139.86983 -113.28837,-253.158204 -253.1582,-253.158204 z m 0,20.251953 c 128.47772,0 232.9043,104.428531 232.9043,232.906251 0,61.32293 -23.80152,117.15466 -62.64258,158.7793 -15.84085,-55.88131 -127.22461,-47.64184 -127.22461,-100.55274 0,0 43.03711,-43.03849 43.03711,-122.15039 0,-47.46714 -38.60708,-86.07226 -86.07422,-86.07226 -47.46713,0 -86.07422,38.60512 -86.07422,86.07226 0,79.1119 43.03711,122.15039 43.03711,122.15039 0,53.49685 -111.37541,44.75481 -127.22266,100.55469 -38.84217,-41.62485 -62.64648,-97.45733 -62.64648,-158.78125 0,-128.47772 104.42854,-232.906251 232.90625,-232.906251 z"
   style="fill:#2f3a48;stroke-width:6.32895184"
   id="XMLID_13_" />

</svg>