<?xml version="1.0" encoding="UTF-8" standalone="no"?>
<svg
   xmlns:dc="http://purl.org/dc/elements/1.1/"
   xmlns:cc="http://creativecommons.org/ns#"
   xmlns:rdf="http://www.w3.org/1999/02/22-rdf-syntax-ns#"
   xmlns:svg="http://www.w3.org/2000/svg"
   xmlns="http://www.w3.org/2000/svg"
   xml:space="preserve"
   style="enable-background:new 0 0 650 650;"
   viewBox="0 0 650 650"
   y="0px"
   x="0px"
   id="svg2"
   version="1.1"><metadata
   id="metadata851"><rdf:RDF><cc:Work
       rdf:about=""><dc:format>image/svg+xml</dc:format><dc:type
         rdf:resource="http://purl.org/dc/dcmitype/StillImage" /><dc:title></dc:title></cc:Work></rdf:RDF></metadata>
<style
   id="style834"
   type="text/css">
	
		.st0{fill:url(#rect3976_1_);stroke:#F2F2FF;stroke-width:5.234;stroke-linecap:round;stroke-linejoin:round;stroke-opacity:0.9412;}
	.st1{fill:none;stroke:#F2F2F2;stroke-width:5.234;stroke-linecap:round;stroke-linejoin:round;}
	.st2{fill:none;stroke:#F2F2FF;stroke-width:3.8928;stroke-linecap:round;stroke-linejoin:round;stroke-opacity:0.9412;}
	.st3{fill:none;stroke:#F2F2FF;stroke-width:5.234;stroke-linecap:round;stroke-linejoin:round;stroke-opacity:0.9412;}
</style>
<defs
   id="defs837" />

<g
   transform="translate(0,-402.36218)"
   id="layer1">
	
		<linearGradient
   gradientTransform="matrix(0 -1 -1 0 941.5102 996.3622)"
   y2="616.5102"
   x2="591.617"
   y1="616.5102"
   x1="-53.617"
   gradientUnits="userSpaceOnUse"
   id="rect3976_1_">
		<stop
   id="stop840"
   style="stop-color:#013363"
   offset="0" />
		<stop
   id="stop842"
   style="stop-color:#013363"
   offset="1" />
	</linearGradient>
	
	<path
   d="m 408.11719,101.73242 -7.65625,15.43555 -7.6543,15.43555 -8.92578,1.19726 c -4.90906,0.65858 -16.64139,3.37336 -26.07031,6.0332 l -17.14258,4.83594 -14.125,-9.32812 -14.125,-9.32813 -8.70313,4.40821 c -10.88957,5.51815 -35.60257,24.12903 -44.50781,33.51757 l -6.72265,7.08789 5.16406,16.33008 5.16406,16.33203 -10.89648,16.84961 c -5.99373,9.26827 -11.76811,19.48913 -12.83204,22.71289 -1.8714,5.67037 -2.52007,5.97602 -19.88281,9.35743 l -17.94726,3.49609 -3.62696,14.74609 c -1.99435,8.11023 -3.86031,15.08666 -4.14648,15.50391 -0.28617,0.41724 -1.99596,-0.5776 -3.80078,-2.21094 -2.85525,-2.58396 -19.97987,-10.53578 -34.9375,-16.22265 -2.64983,-1.00748 -4.35687,-2.29353 -3.79297,-2.85743 0.5639,-0.5639 10.85555,-2.23576 22.86914,-3.71679 23.89643,-2.94593 29.2173,-5.26807 33.03711,-14.41016 4.16676,-9.97246 -0.17659,-19.58944 -10.91211,-24.16602 -4.49101,-1.91453 -9.0509,-1.48389 -29.56641,2.79493 -26.11593,5.44688 -33.09349,7.84435 -45.34765,15.58007 -4.34461,2.74263 -8.34181,4.54491 -8.88282,4.00391 -0.24542,-0.24543 -0.96877,-0.2095 -1.9375,0.0293 a 18.941271,18.239742 0 0 0 4.11133,-7.29102 l 0.54297,3.35938 0.23242,-7.9961 c 0.18934,-6.54526 -0.74823,-8.97674 -5.16992,-13.39843 -4.42255,-4.42255 -6.96079,-5.4004 -14.001952,-5.4004 -7.041166,0 -9.579402,0.97785 -14.001953,5.4004 -6.733238,6.73324 -7.40797,17.41847 -1.570313,24.83984 2.10644,2.67791 4.95166,4.86914 6.324219,4.86914 0.339315,0 0.52569,-0.13296 0.576172,-0.37109 a 18.941271,18.239742 0 0 0 2.126953,0.91406 c -0.792759,0.19456 -0.982912,0.43757 -0.357422,0.68945 1.657865,0.66761 1.008021,2.52126 -2.236328,6.37696 -11.020344,13.09693 -8.900593,26.00941 10.900391,66.42578 16.140813,32.9455 20.526223,46.80485 17.408203,55.00586 -2.14512,5.64209 -17.229386,24.63395 -27.330078,34.41015 -5.784318,5.59849 -7.546875,8.70763 -7.546875,13.31055 0,8.40701 3.0885,14.26289 9.527344,18.0664 10.112231,5.97345 16.082719,3.06724 38.882809,-18.91992 22.01399,-21.22908 25.97783,-27.43487 24.26367,-37.99804 -0.59893,-3.69084 -0.35812,-6.70713 0.53711,-6.70313 3.43387,0.0146 13.33622,7.40632 29.33399,21.89844 11.02584,9.98813 18.62662,15.43032 22.58984,16.17383 8.27976,1.55328 17.25147,-3.97365 20.56055,-12.66797 2.32141,-6.09931 2.23279,-7.40528 -0.87695,-13.05469 -1.90031,-3.45226 -12.01605,-13.99513 -22.47852,-23.42773 -17.0498,-15.3715 -20.97777,-17.94854 -37.88086,-24.85547 l -18.85937,-7.70703 -8.92969,-17.14258 c -4.91169,-9.42936 -8.46797,-17.60819 -7.90234,-18.17383 0.56561,-0.56562 10.70328,2.41496 22.52734,6.62305 23.49374,8.36126 27.83869,9.00679 33.21875,4.9375 5.65272,-4.2755 6.35937,-3.47604 6.35937,7.1914 v 10.01953 l 15.16993,8.04493 15.16992,8.04492 3.1875,15.6582 c 1.75294,8.61233 4.48861,19.29693 6.08008,23.74414 1.59147,4.44722 2.89453,9.26637 2.89453,10.70899 0,1.44263 -4.23049,8.89129 -9.40039,16.55273 l -9.40039,13.92969 8.77929,14.52344 c 10.57193,17.48798 32.99965,44.30078 37.05469,44.30078 1.60366,0 9.77292,-2.13684 18.1543,-4.75 l 15.23828,-4.75196 11.82617,8.22071 c 6.50428,4.52143 16.40038,10.50151 21.99023,13.28906 5.58985,2.78754 10.37518,5.25064 10.63477,5.47266 0.2596,0.22203 1.84066,7.39666 3.51367,15.94531 1.67298,8.54867 3.81271,16.53842 4.75391,17.7539 1.59262,2.05675 28.60877,8.89819 41.15429,10.42188 3.04902,0.37032 11.50677,0.79694 18.79688,0.94922 l 13.25586,0.27734 8.08008,-15.24414 8.08203,-15.24609 15.14062,-3.21094 c 8.32701,-1.76587 19.8079,-4.85005 25.51368,-6.85547 l 10.375,-3.64648 13.20507,8.83984 c 7.26332,4.86197 14.11263,9.37003 15.22071,10.01758 5.04859,2.95037 59.89062,-38.25085 59.89062,-44.99414 0,-1.86121 -2.11782,-10.08529 -4.70508,-18.27539 l -4.70312,-14.89063 4.45898,-5.99414 c 2.45275,-3.29613 5.83602,-8.16443 7.51953,-10.81836 l 3.0625,-4.82422 -33.50195,-20.00586 c -26.73361,-15.96392 -33.80684,-19.46202 -35.00976,-17.3125 -4.56696,8.16068 -18.12875,22.87206 -27.76172,30.11329 -21.93521,16.48898 -42.7856,23.46484 -70.12696,23.46484 -32.80852,0 -58.48561,-10.53569 -81.34375,-33.37695 -23.97517,-23.95747 -34.04312,-48.3691 -33.92578,-82.25782 0.0837,-24.14474 5.38498,-43.13406 16.93164,-60.63867 18.65642,-28.28291 43.47515,-45.46335 75.1211,-52 25.02421,-5.1689 47.74339,-2.47928 71.47851,8.46094 7.02136,3.23635 13.03972,5.54918 13.375,5.13867 5.03826,-6.16856 38.15994,-63.64085 37.55664,-65.16797 -0.68228,-1.72706 -5.63998,-4.62119 -23.13086,-13.50781 -0.63902,-0.32467 -2.05612,-6.43442 -5.75586,-24.82031 -1.95991,-9.73977 -2.49227,-10.47532 -8.93945,-12.36133 -14.60276,-4.27178 -38.41008,-7.77344 -52.84375,-7.77344 z m -67.1875,45.0586 c 0.47633,0.0748 0.97143,0.10426 1.46679,0.1289 -0.26492,0.10748 -0.53258,0.20973 -0.79687,0.31836 z m -202.0586,120.45312 c 1.06985,-0.0565 2.79344,0.22215 4.88086,0.70703 l -0.875,1.32422 c -2.34746,-0.3305 -3.92454,0.0132 -5.79297,0.78711 -6.99807,2.8987 -12.51757,10.21671 -12.51757,16.59766 0,2.98708 0.049,4.59537 2.58203,6.41211 l -1.13672,1.7207 c -0.93369,-0.54849 -1.55917,-1.01191 -1.77734,-1.35547 -0.80245,-1.26357 -1.47279,-4.93523 -1.48829,-8.16016 -0.0325,-6.73025 8.03557,-16.07528 15.49414,-17.94726 0.1786,-0.0448 0.38907,-0.0732 0.63086,-0.0859 z m 200.18164,234.31445 c 0.44959,0.19254 0.89632,0.3909 1.34766,0.58008 l 0.14453,0.72071 c -0.43969,-0.41116 -0.93068,-0.84364 -1.49219,-1.30079 z"
   transform="translate(0,402.36218)"
   id="path3075" />
	
		
	
		
<path
   transform="translate(0,402.36218)"
   id="path873"
   d=""
   style="opacity:1;fill:#000000;fill-opacity:1;stroke:#cbd900;stroke-width:1.85079527;stroke-miterlimit:4;stroke-dasharray:none;stroke-opacity:0" /><path
   transform="translate(0,402.36218)"
   id="path875"
   d=""
   style="opacity:1;fill:#000000;fill-opacity:1;stroke:#cbd900;stroke-width:1.85079527;stroke-miterlimit:4;stroke-dasharray:none;stroke-opacity:0" /></g>
</svg>