<?xml version="1.0" encoding="utf-8"?>
<!-- Generator: Adobe Illustrator 19.0.0, SVG Export Plug-In . SVG Version: 6.00 Build 0)  -->
<svg version="1.1" id="Ebene_1" xmlns="http://www.w3.org/2000/svg" xmlns:xlink="http://www.w3.org/1999/xlink" x="0px" y="0px"
	 viewBox="0 0 841.9 595.3" style="enable-background:new 0 0 841.9 595.3;" xml:space="preserve">
<style type="text/css">
	.st0{fill:#2F3A48;}
</style>
<g id="XMLID_17_">
	<path id="XMLID_19_" class="st0" d="M338.8,286.9l-17.6-19.4c-0.2-0.2-0.5-0.4-0.8-0.4h-40.7c-0.3,0-0.6,0.1-0.8,0.3l-19.4,19.4
		c-0.3,0.3-0.4,0.8-0.2,1.2c0.2,0.4,0.6,0.7,1,0.7h77.8c0.4,0,0.8-0.3,1-0.7C339.1,287.7,339.1,287.2,338.8,286.9z"/>
	<path id="XMLID_18_" class="st0" d="M323.1,296.2h-48c-0.6,0-1.1,0.5-1.1,1.1v24.1c0,0.6,0.6,1.1,1.2,1.1c0.3,0,0.6-0.1,0.8-0.3
		c6.2-6.1,14.5-9.5,23.2-9.5s16.9,3.4,23.2,9.5c0.2,0.2,0.5,0.3,0.8,0.3h0.1c0.6,0,1.1-0.5,1.1-1.1v-24.1
		C324.2,296.7,323.7,296.2,323.1,296.2z"/>
</g>
<g id="XMLID_11_">
	<path id="XMLID_13_" class="st0" d="M421.4,258c20.3,0,36.8,16.5,36.8,36.8c0,20.3-16.5,36.8-36.8,36.8
		c-20.3,0-36.8-16.5-36.8-36.8C384.6,274.5,401.1,258,421.4,258 M421.4,254.8c-22.1,0-40,17.9-40,40c0,22.1,17.9,40,40,40
		c22.1,0,40-17.9,40-40C461.4,272.7,443.5,254.8,421.4,254.8L421.4,254.8z"/>
	<path id="XMLID_12_" class="st0" d="M448.6,322.1c0-11.3-20.4-9.1-20.4-18.1c0,0,6.8-6.8,6.8-19.3c0-7.5-6.1-13.6-13.6-13.6
		s-13.6,6.1-13.6,13.6c0,12.5,6.8,19.3,6.8,19.3c0,9.1-20.4,6.8-20.4,18.1v2c7.1,6.6,16.7,10.7,27.2,10.7c10.5,0,20.1-4.1,27.2-10.7
		V322.1z"/>
</g>
<g id="XMLID_2_">
	<path id="XMLID_10_" class="st0" d="M552.5,329.2c-4.4-0.5-7.9-1.4-7.9-4.9v-6.7c0-2.2,1.4-3.4,3.6-4c-3.2-1.7-5.6-3.8-5.6-7.1
		c0,0,8.3-8.3,8.3-23.5c0-9.1-7.4-16.6-16.6-16.6c-9.1,0-16.6,7.4-16.6,16.6c0,15.2,8.3,23.5,8.3,23.5c0,11.1-24.9,8.3-24.9,22.1
		v2.7c0,0.8,0.6,1.4,1.4,1.4h48.6C551.5,331.8,551.9,330.7,552.5,329.2z"/>
	<g id="XMLID_3_">
		<path id="XMLID_39_" class="st0" d="M548.4,324.3v-6.7c0-0.5,2.4-1,7.1-1.5c0.4-0.9,0.9-1.8,1.4-2.5c-1.6-3.6-2.4-5.8-2.4-6.6
			c0-0.1,0.1-0.2,0.2-0.3c0.1-0.1,0.7-0.4,1.7-1c1-0.6,1.9-1.1,2.8-1.6c0.9-0.5,1.4-0.8,1.4-0.8c0.3,0,1,0.7,2.2,2.2
			c1.2,1.5,2,2.6,2.5,3.2c0.6-0.1,1.1-0.1,1.4-0.1s0.8,0,1.4,0.1c1.6-2.3,3.1-4.1,4.4-5.4l0.3-0.1c0.1,0,2.1,1.1,5.9,3.4
			c0.1,0.1,0.2,0.2,0.2,0.3c0,0.8-0.8,3-2.4,6.6c0.5,0.7,1,1.6,1.4,2.5c4.8,0.5,7.1,1,7.1,1.5v6.7c0,0.5-2.4,1-7.1,1.5
			c-0.4,0.9-0.9,1.7-1.4,2.5c1.6,3.6,2.4,5.8,2.4,6.6c0,0.1-0.1,0.2-0.2,0.3c-3.9,2.3-5.9,3.4-5.9,3.4c-0.3,0-1-0.8-2.2-2.3
			c-1.2-1.5-2-2.6-2.5-3.3c-0.6,0.1-1.1,0.1-1.4,0.1s-0.8,0-1.4-0.1c-0.4,0.7-1.3,1.8-2.5,3.3c-1.2,1.5-2,2.3-2.2,2.3
			c-0.1,0-2-1.1-5.9-3.4c-0.1-0.1-0.2-0.2-0.2-0.3c0-0.8,0.8-3,2.4-6.6c-0.6-0.8-1.1-1.6-1.4-2.5
			C550.8,325.3,548.4,324.8,548.4,324.3z M560.7,321c0,1.7,0.6,3.1,1.8,4.3c1.2,1.2,2.6,1.8,4.3,1.8s3.1-0.6,4.3-1.8
			c1.2-1.2,1.8-2.6,1.8-4.3c0-1.7-0.6-3.1-1.8-4.3c-1.2-1.2-2.7-1.8-4.3-1.8s-3.1,0.6-4.3,1.8C561.3,317.9,560.7,319.3,560.7,321z"
			/>
	</g>
</g>
</svg>
