<?xml version="1.0" encoding="UTF-8" standalone="no"?>
<svg
   xmlns:dc="http://purl.org/dc/elements/1.1/"
   xmlns:cc="http://creativecommons.org/ns#"
   xmlns:rdf="http://www.w3.org/1999/02/22-rdf-syntax-ns#"
   xmlns:svg="http://www.w3.org/2000/svg"
   xmlns="http://www.w3.org/2000/svg"
   xmlns:xlink="http://www.w3.org/1999/xlink"
   xmlns:sodipodi="http://sodipodi.sourceforge.net/DTD/sodipodi-0.dtd"
   xmlns:inkscape="http://www.inkscape.org/namespaces/inkscape"
   viewBox="0 0 50 50"
   version="1.1"
   id="svg998"
   sodipodi:docname="MoodleW.svg"
   inkscape:version="0.92.3 (2405546, 2018-03-11)">
  <defs
     id="defs1002">
    <linearGradient
       inkscape:collect="always"
       id="linearGradient1551">
      <stop
         style="stop-color:#ffffff;stop-opacity:1;"
         offset="0"
         id="stop1547" />
      <stop
         style="stop-color:#ffffff;stop-opacity:0;"
         offset="1"
         id="stop1549" />
    </linearGradient>
    <radialGradient
       inkscape:collect="always"
       xlink:href="#linearGradient1551"
       id="radialGradient1553"
       cx="24.5"
       cy="23.5"
       fx="24.5"
       fy="23.5"
       r="19.5"
       gradientTransform="matrix(1,0,0,0.69230769,0,7.2307692)"
       gradientUnits="userSpaceOnUse" />
  </defs>
  <sodipodi:namedview
     pagecolor="#ffffff"
     bordercolor="#666666"
     borderopacity="1"
     objecttolerance="10"
     gridtolerance="10"
     guidetolerance="10"
     inkscape:pageopacity="0"
     inkscape:pageshadow="2"
     inkscape:window-width="1920"
     inkscape:window-height="1018"
     id="namedview1000"
     showgrid="false"
     inkscape:zoom="4.72"
     inkscape:cx="25"
     inkscape:cy="25"
     inkscape:window-x="-8"
     inkscape:window-y="-8"
     inkscape:window-maximized="1"
     inkscape:current-layer="svg998" />
  <path
     d="M31 10l-14 1-12 7h3v9.215c-.582.48-1 1.762-1 3.285 0 1.934.672 3.5 1.5 3.5s1.5-1.066 1.5-3c0-1.523-.418-3.11-1-3.723V18h11zm-5.5 5l-5 4h-8c-.098.484-.125.469-.125.98 0 .52.055 1.028.156 1.52.278-.012 5.969-.5 8.989 2 .585-1.773 2.21-4.05 4.515-6.121.211-.192.25-.2.465-.379 0-1-.46-1.422-1-2zm8.5 1a8.942 8.942 0 0 0-6 2.32 8.484 8.484 0 0 0-.969-.742c-.12.106-.25.207-.37.317-1.626 1.46-2.903 3.023-3.724 4.437C24.148 22.882 25 24.09 25 25.5V37h6V25.5a3.51 3.51 0 0 1 3.5-3.5 3.51 3.51 0 0 1 3.5 3.5V37h6V25c0-4.95-4.05-9-9-9zm-21.469 6.016A8.818 8.818 0 0 0 12 25v12h6V25.5c0-.867.332-1.648.86-2.254-1.54-.71-3.794-1.172-6.329-1.23z"
     fill-rule="evenodd"
     id="surface1"
     style="fill:url(#radialGradient1553);fill-opacity:1" />
  <metadata
     id="metadata996">
    <rdf:RDF>
      <rdf:Description
         about="https://iconscout.com/legal#licenses"
         dc:title="moodle,filled"
         dc:description="moodle,filled"
         dc:publisher="Iconscout"
         dc:date="2017-12-09"
         dc:format="image/svg+xml"
         dc:language="en">
        <dc:creator>
          <rdf:Bag>
            <rdf:li>Icons8</rdf:li>
          </rdf:Bag>
        </dc:creator>
      </rdf:Description>
      <cc:Work
         rdf:about="">
        <dc:format>image/svg+xml</dc:format>
        <dc:type
           rdf:resource="http://purl.org/dc/dcmitype/StillImage" />
        <dc:title></dc:title>
      </cc:Work>
    </rdf:RDF>
  </metadata>
</svg>
