<?xml version="1.0" encoding="UTF-8" standalone="no"?>
<svg
   xmlns:dc="http://purl.org/dc/elements/1.1/"
   xmlns:cc="http://creativecommons.org/ns#"
   xmlns:rdf="http://www.w3.org/1999/02/22-rdf-syntax-ns#"
   xmlns:svg="http://www.w3.org/2000/svg"
   xmlns="http://www.w3.org/2000/svg"
   xml:space="preserve"
   style="enable-background:new 0 0 841.9 595.3;"
   viewBox="0 0 841.9 595.3"
   y="0px"
   x="0px"
   id="Ebene_1"
   version="1.1"><metadata
   id="metadata851"><rdf:RDF><cc:Work
       rdf:about=""><dc:format>image/svg+xml</dc:format><dc:type
         rdf:resource="http://purl.org/dc/dcmitype/StillImage" /><dc:title></dc:title></cc:Work></rdf:RDF></metadata><defs
   id="defs849" />
<style
   id="style834"
   type="text/css">
	.st0{fill:#2F3A48;}
</style>


<g
   transform="matrix(7.1267966,0,0,7.1267966,-3459.3382,-1883.9015)"
   id="XMLID_3_">
		<path
   d="m 548.4,324.3 v -6.7 c 0,-0.5 2.4,-1 7.1,-1.5 0.4,-0.9 0.9,-1.8 1.4,-2.5 -1.6,-3.6 -2.4,-5.8 -2.4,-6.6 0,-0.1 0.1,-0.2 0.2,-0.3 0.1,-0.1 0.7,-0.4 1.7,-1 1,-0.6 1.9,-1.1 2.8,-1.6 0.9,-0.5 1.4,-0.8 1.4,-0.8 0.3,0 1,0.7 2.2,2.2 1.2,1.5 2,2.6 2.5,3.2 0.6,-0.1 1.1,-0.1 1.4,-0.1 0.3,0 0.8,0 1.4,0.1 1.6,-2.3 3.1,-4.1 4.4,-5.4 l 0.3,-0.1 c 0.1,0 2.1,1.1 5.9,3.4 0.1,0.1 0.2,0.2 0.2,0.3 0,0.8 -0.8,3 -2.4,6.6 0.5,0.7 1,1.6 1.4,2.5 4.8,0.5 7.1,1 7.1,1.5 v 6.7 c 0,0.5 -2.4,1 -7.1,1.5 -0.4,0.9 -0.9,1.7 -1.4,2.5 1.6,3.6 2.4,5.8 2.4,6.6 0,0.1 -0.1,0.2 -0.2,0.3 -3.9,2.3 -5.9,3.4 -5.9,3.4 -0.3,0 -1,-0.8 -2.2,-2.3 -1.2,-1.5 -2,-2.6 -2.5,-3.3 -0.6,0.1 -1.1,0.1 -1.4,0.1 -0.3,0 -0.8,0 -1.4,-0.1 -0.4,0.7 -1.3,1.8 -2.5,3.3 -1.2,1.5 -2,2.3 -2.2,2.3 -0.1,0 -2,-1.1 -5.9,-3.4 -0.1,-0.1 -0.2,-0.2 -0.2,-0.3 0,-0.8 0.8,-3 2.4,-6.6 -0.6,-0.8 -1.1,-1.6 -1.4,-2.5 -4.7,-0.4 -7.1,-0.9 -7.1,-1.4 z m 12.3,-3.3 c 0,1.7 0.6,3.1 1.8,4.3 1.2,1.2 2.6,1.8 4.3,1.8 1.7,0 3.1,-0.6 4.3,-1.8 1.2,-1.2 1.8,-2.6 1.8,-4.3 0,-1.7 -0.6,-3.1 -1.8,-4.3 -1.2,-1.2 -2.7,-1.8 -4.3,-1.8 -1.6,0 -3.1,0.6 -4.3,1.8 -1.2,1.2 -1.8,2.6 -1.8,4.3 z m -8.2,8.2 c -4.4,-0.5 -7.9,-1.4 -7.9,-4.9 v -6.7 c 0,-2.2 1.4,-3.4 3.6,-4 -3.2,-1.7 -5.6,-3.8 -5.6,-7.1 0,0 8.3,-8.3 8.3,-23.5 0,-9.1 -7.4,-16.6 -16.6,-16.6 -9.1,0 -16.6,7.4 -16.6,16.6 0,15.2 8.3,23.5 8.3,23.5 0,11.1 -24.9,8.3 -24.9,22.1 v 2.7 c 0,0.8 0.6,1.4 1.4,1.4 h 48.6 c 0.4,-0.9 0.8,-2 1.4,-3.5 z"
   style="fill:#2f3a48"
   id="XMLID_39_" />
	</g>
</svg>